<svg width="27" height="27" viewBox="0 0 27 27" fill="none" xmlns="http://www.w3.org/2000/svg">
<path d="M26.8022 24.6962L20.4182 18.3247C20.26 18.2193 20.1017 18.114 19.9433 18.114H19.2576C20.893 16.2185 21.9483 13.6909 21.9483 10.9527C21.9483 4.94975 16.9888 0 10.9741 0C4.90677 0 0 4.94975 0 10.9527C0 17.0082 4.90677 21.9054 10.9741 21.9054C13.7177 21.9054 16.1973 20.905 18.1494 19.2725V19.9571C18.1494 20.115 18.2023 20.2729 18.3079 20.431L24.6919 26.8026C24.9556 27.0658 25.3776 27.0658 25.5887 26.8026L26.8022 25.5915C27.0659 25.3808 27.0659 24.9594 26.8022 24.6962ZM10.9741 19.3778C6.27846 19.3778 2.53249 15.6392 2.53249 10.9527C2.53249 6.31876 6.27846 2.52754 10.9741 2.52754C15.6171 2.52754 19.4158 6.31876 19.4158 10.9527C19.4158 15.6392 15.6171 19.3778 10.9741 19.3778Z" fill="white"/>
</svg>
