<svg display ="none"
xmlns="http://www.w3.org/2000/svg">
            <symbol id="search" viewBox="0 0 27 27">
                <g>
                    <path d="M26.8022 24.6962L20.4182 18.3247C20.26 18.2193 20.1017 18.114 19.9433 18.114H19.2576C20.893 16.2185 21.9483 13.6909 21.9483 10.9527C21.9483 4.94975 16.9888 0 10.9741 0C4.90677 0 0 4.94975 0 10.9527C0 17.0082 4.90677 21.9054 10.9741 21.9054C13.7177 21.9054 16.1973 20.905 18.1494 19.2725V19.9571C18.1494 20.115 18.2023 20.2729 18.3079 20.431L24.6919 26.8026C24.9556 27.0658 25.3776 27.0658 25.5887 26.8026L26.8022 25.5915C27.0659 25.3808 27.0659 24.9594 26.8022 24.6962ZM10.9741 19.3778C6.27846 19.3778 2.53249 15.6392 2.53249 10.9527C2.53249 6.31876 6.27846 2.52754 10.9741 2.52754C15.6171 2.52754 19.4158 6.31876 19.4158 10.9527C19.4158 15.6392 15.6171 19.3778 10.9741 19.3778Z" />
                </g>
            </symbol>
            <symbol id="facebook" viewBox="0 0 455 455">
                <g>
                    <path style="fill-rule:evenodd;clip-rule:evenodd;" d="M0,0v455h455V0H0z M301.004,125.217H265.44
                    c-7.044,0-14.153,7.28-14.153,12.696v36.264h49.647c-1.999,27.807-6.103,53.235-6.103,53.235h-43.798V385h-65.266V227.395h-31.771
                    v-53.029h31.771v-43.356c0-7.928-1.606-61.009,66.872-61.009h48.366V125.217z"/>
                </g>
            </symbol>
            <symbol id="twitter" viewBox="0 0 455.731 455.731">
                <g>
                    <path d="M0,0v455.731h455.731V0H0z M361.271,163.944c0.104,2.676,0.161,5.362,0.161,8.067c0,108.339-87.831,196.18-196.18,196.18
                        c-38.568,0-74.545-11.132-104.875-30.368c-0.007-0.001-0.014-0.002-0.02-0.003l0.02,0.003c0,0,0,0,0,0
                        c59.293,8.843,101.06-28.888,101.06-28.888c-52.832-4.109-63.271-48.077-63.271-48.077c18.667,3.16,30.368-1.272,30.368-1.272
                        c-59.465-13.912-54.407-68.329-54.407-68.329c13.77,8.228,29.733,8.864,29.733,8.864c-52.509-46.188-19.607-91.105-19.607-91.105
                        c55.052,66.668,135.975,71.204,141.289,71.423c-1.167-5.011-1.784-10.23-1.784-15.592c0-37.998,30.814-68.803,68.841-68.803
                        c19.825,0,37.685,8.37,50.25,21.78c3.483-0.977,6.861-2.031,10.088-3.103c19.493-6.501,33.415-13.932,33.415-13.932
                        c-3.359,20.129-28.176,37.021-29.951,38.207c-0.066,0.047-0.104,0.066-0.104,0.066c0.038,0,0.085-0.009,0.123-0.009
                        c19.265-1.927,38.948-10.107,38.948-10.107C389.428,141.433,365.19,160.859,361.271,163.944z"/>
                </g>
            </symbol>
            <symbol id="behance" viewBox="0 0 455 455">
                <g>
                    <path style="fill-rule:evenodd;clip-rule:evenodd;" d="M181.289,242.565c-5.597-4.246-13.062-6.358-22.245-6.358h-46.379v53.356
                        h45.524c4.211,0,8.205-0.373,11.963-1.214c3.815-0.834,7.199-2.156,10.052-4.11c2.853-1.879,5.216-4.455,6.934-7.731
                        c1.724-3.247,2.55-7.465,2.55-12.559C189.688,253.961,186.879,246.873,181.289,242.565z"/>
                    <path style="fill-rule:evenodd;clip-rule:evenodd;" d="M174.606,201.654c4.907-3.582,7.286-9.502,7.286-17.621
                        c0-4.509-0.79-8.235-2.379-11.126c-1.645-2.892-3.822-5.155-6.574-6.739c-2.73-1.649-5.813-2.788-9.391-3.402
                        c-3.513-0.687-7.199-0.956-10.972-0.956h-39.913v45.276h43.168C163.391,207.086,169.649,205.293,174.606,201.654z"/>
                    <path style="fill-rule:evenodd;clip-rule:evenodd;" d="M0,0v455h455V0H0z M275.636,141.802h78.54v19.12h-78.54V141.802z
                         M226.605,291.707c-3.793,7.204-8.959,13.041-15.326,17.546c-6.416,4.545-13.788,7.878-22.044,10.048
                        c-8.162,2.17-16.64,3.262-25.32,3.262H70V128.804h91.351c9.269,0,17.632,0.801,25.277,2.458c7.602,1.613,14.09,4.304,19.572,7.993
                        c5.396,3.69,9.621,8.597,12.645,14.78c2.953,6.09,4.434,13.717,4.434,22.734c0,9.754-2.213,17.901-6.639,24.414
                        c-4.462,6.502-11.014,11.838-19.773,15.98c11.927,3.427,20.758,9.463,26.613,18.045c5.885,8.641,8.766,18.979,8.766,31.101
                        C232.245,276.134,230.363,284.595,226.605,291.707z M384.755,261.692H283.518c0,11.09,3.75,21.591,9.542,27.227
                        c5.769,5.637,14.111,8.471,24.917,8.471c7.774,0,14.492-1.965,20.125-5.881c5.583-3.912,8.981-8.094,10.296-12.437h33.935
                        c-5.453,16.888-13.73,28.944-25.018,36.202c-11.158,7.289-24.768,10.921-40.624,10.921c-11.051,0-20.995-1.789-29.926-5.313
                        c-8.924-3.568-16.382-8.568-22.654-15.085c-6.115-6.549-10.864-14.287-14.248-23.38c-3.348-9.043-5.037-19.055-5.037-29.905
                        c0-10.49,1.753-20.291,5.18-29.348c3.499-9.089,8.335-16.931,14.694-23.509c6.373-6.614,13.931-11.834,22.733-15.645
                        c8.802-3.798,18.508-5.709,29.258-5.709c11.869,0,22.266,2.284,31.176,6.937c8.88,4.588,16.159,10.807,21.878,18.592
                        c5.719,7.771,9.786,16.659,12.33,26.628C384.597,240.41,385.481,250.807,384.755,261.692z"/>
                    <path style="fill-rule:evenodd;clip-rule:evenodd;" d="M315.534,207.398c-6.157,0-11.252,1.035-15.332,3.147
                        c-3.988,2.084-7.257,4.677-9.757,7.731c-2.486,3.104-4.182,6.38-5.166,9.883c-0.991,3.413-1.58,6.51-1.76,9.248h62.697
                        c-0.92-9.826-4.283-17.09-8.881-22.198C332.757,210.139,324.997,207.398,315.534,207.398z"/>
                </g>
            </symbol>
        </svg>